<?xml version="1.0" encoding="utf-8"?>
<svg xmlns="http://www.w3.org/2000/svg" viewBox="0 0 500 500">
  <path d="M 493.114 169.166 C 483.609 236.305 452.899 297.737 409.356 349.581 C 362.267 405.645 260.989 475.946 185.725 472.471 C 136.603 473.363 89.251 454.137 54.654 419.254 C 20.053 384.368 1.213 336.861 2.499 287.744 C 2.524 228.987 30.258 173.685 77.332 138.525 C 108.533 115.547 146.239 103.1 184.987 102.984 L 242.9 102.984 C 288.642 102.951 332.262 83.69 363.102 49.909 C 363.425 49.551 363.854 49.307 364.325 49.211 C 365.292 49.002 366.282 49.434 366.785 50.285 C 367.033 50.7 367.145 51.182 367.105 51.667 C 364.65 77.698 355.984 102.759 341.836 124.746 C 341.407 125.527 341.48 126.487 342.022 127.192 C 342.562 127.899 343.464 128.219 344.328 128.013 C 398.542 115.766 443.722 78.507 466.069 27.618 C 466.349 27.169 466.735 26.797 467.194 26.533 C 468.134 26.004 469.281 26.004 470.22 26.533 C 470.68 26.795 471.067 27.167 471.344 27.618 C 494.041 71.099 500.227 118.917 493.114 169.166 Z" fill="#702af7" style="stroke-width: 1;"/>
  <rect width="283.457" height="329.634" fill="none" x="79.923" y="122.085" style="stroke-width: 1;"/>
  <line x1="310.231" y1="286.901" x2="221.652" y2="389.912" fill="none" stroke-linecap="round" stroke-linejoin="round" stroke-width="32" style="stroke-width: 32; stroke: rgb(255, 255, 255);"/>
  <line x1="292.515" y1="173.589" x2="124.214" y2="369.309" fill="none" stroke-linecap="round" stroke-linejoin="round" stroke-width="32" style="stroke-width: 32; stroke: rgb(255, 255, 255);"/>
</svg>